<svg width="22" height="22" viewBox="0 0 22 22" fill="none" xmlns="http://www.w3.org/2000/svg">
<path d="M11 3C15.4183 3 19 6.58172 19 11C19 15.4183 15.4183 19 11 19C6.58172 19 3 15.4183 3 11C3 6.58172 6.58172 3 11 3Z" fill="#EA4335"/>
<path d="M9.2 12.28L7.12 10.2L6 11.32L9.2 14.52L15.6 8.12L14.48 7L9.2 12.28Z" fill="white"/>
<path d="M11 0C4.92487 0 0 4.92487 0 11C0 17.0751 4.92487 22 11 22C17.0751 22 22 17.0751 22 11C22 4.92487 17.0751 0 11 0Z" fill="#EA4335"/>
<path d="M11 2C6.02944 2 2 6.02944 2 11C2 15.9706 6.02944 20 11 20C15.9706 20 20 15.9706 20 11C20 6.02944 15.9706 2 11 2Z" fill="white"/>
<path fill-rule="evenodd" clip-rule="evenodd" d="M11 19C15.4183 19 19 15.4183 19 11C19 6.58172 15.4183 3 11 3C6.58172 3 3 6.58172 3 11C3 15.4183 6.58172 19 11 19Z" fill="#EA4335"/>
<path fill-rule="evenodd" clip-rule="evenodd" d="M13.2627 14.3941L11 12.1314L8.73726 14.3941L7.60589 13.2627L9.86863 11L7.60589 8.73725L8.73726 7.60588L11 9.86862L13.2627 7.60588L14.3941 8.73725L12.1314 11L14.3941 13.2627L13.2627 14.3941Z" fill="white"/>
</svg>
